<svg xmlns="http://www.w3.org/2000/svg" width="64" height="64" viewBox="0 0 64 64">
    <g transform="translate(8.5, 9.5)">
      <g transform="translate(-6.972, -7.751)">
        <path d="M20.506,26.914C21.136,26.872 21.798,26.97 22.497,27.072C23.09,27.159 23.702,27.249 24.297,27.249C26.667,27.288 29.078,27.457 31.41,27.621C34.058,27.808 36.798,27.999 39.472,27.999C39.664,27.999 39.826,27.888 39.91,27.728C40.135,27.679 40.306,27.488 40.306,27.249L40.306,23.812C40.27,22.917 40.188,22.013 40.108,21.137C40.001,19.951 39.889,18.726 39.889,17.498C39.889,16.418 39.953,15.319 40.015,14.256C40.077,13.21 40.139,12.128 40.139,11.082C40.139,10.807 39.914,10.582 39.639,10.582C39.595,10.582 39.555,10.597 39.514,10.607C39.473,10.596 39.433,10.582 39.389,10.582C38.076,10.582 36.754,10.688 35.474,10.792C34.214,10.896 32.91,11 31.639,11C27.745,11 24.067,11 20.244,10.834C19.982,10.814 19.735,11.037 19.723,11.313C19.719,11.417 19.754,11.509 19.805,11.592C19.804,13.992 19.784,16.41 19.764,18.83C19.743,21.31 19.722,23.791 19.722,26.25C19.722,26.479 19.879,26.664 20.089,26.724C20.19,26.845 20.338,26.924 20.506,26.914ZM35.555,11.788C36.729,11.693 37.939,11.603 39.127,11.59C39.111,12.442 39.068,13.297 39.017,14.197C38.954,15.275 38.889,16.389 38.889,17.497C38.889,18.77 39.002,20.018 39.112,21.226C39.19,22.088 39.272,22.982 39.306,23.83L39.306,26.994C36.719,26.987 34.057,26.803 31.481,26.621C29.137,26.456 26.71,26.286 24.307,26.246C23.777,26.246 23.226,26.165 22.643,26.08C22.015,25.988 21.37,25.898 20.725,25.909C20.727,23.562 20.745,21.199 20.765,18.834C20.785,16.5 20.802,14.167 20.805,11.851C24.432,11.993 27.941,11.997 31.639,11.997C32.951,11.998 34.274,11.892 35.555,11.788ZM52.91,35.412C52.856,34.551 52.806,33.737 52.806,32.998C52.806,32.957 52.791,32.921 52.784,32.883C52.786,32.873 52.792,32.865 52.794,32.855C52.854,32.585 52.683,32.32 52.413,32.26C49.892,31.708 47.489,31.671 44.979,31.668C44.979,31.638 44.978,31.608 44.977,31.579C45.081,31.561 45.18,31.542 45.286,31.524C46.206,31.378 47.155,31.227 48.001,30.665C48.136,30.575 48.204,30.429 48.214,30.279C48.256,30.216 48.29,30.149 48.302,30.069C48.39,29.451 48.39,28.84 48.39,28.25C48.39,28.204 48.374,28.162 48.365,28.119C48.468,28.106 48.568,28.088 48.673,28.082C48.947,28.065 49.158,27.827 49.141,27.552C49.138,27.507 49.121,27.467 49.106,27.426C49.127,27.371 49.142,27.314 49.142,27.25L49.136,24.75C49.123,21.393 49.109,17.92 49.308,14.529C49.325,14.254 49.114,14.017 48.838,14.001C48.789,13.998 48.746,14.01 48.701,14.021C48.224,13.859 47.709,13.575 47.162,13.272C46.473,12.89 45.763,12.509 45.058,12.336L45.058,9.084C45.058,8.809 44.834,8.584 44.558,8.584C44.555,8.584 44.552,8.586 44.548,8.586C44.549,8.581 44.552,8.577 44.553,8.572C44.592,8.299 44.402,8.045 44.129,8.006C43.703,7.945 43.32,7.931 42.931,7.924C42.841,7.821 42.713,7.753 42.565,7.751C42.466,7.746 42.376,7.782 42.295,7.834L18.056,7.834C17.78,7.834 17.556,8.059 17.556,8.334C17.556,8.378 17.57,8.418 17.581,8.459C17.57,8.5 17.556,8.54 17.556,8.584L17.556,29.084C17.556,29.126 17.57,29.164 17.58,29.204C17.566,29.253 17.554,29.304 17.557,29.358C17.57,29.633 17.8,29.85 18.08,29.834C18.648,29.808 19.224,29.808 19.799,29.813C19.818,30.186 19.903,30.534 19.987,30.872C20.049,31.122 20.113,31.375 20.143,31.64C20.144,31.656 20.153,31.668 20.156,31.683C20.162,31.711 20.17,31.738 20.181,31.765C20.194,31.797 20.208,31.828 20.227,31.855C20.242,31.878 20.258,31.898 20.276,31.918C20.3,31.944 20.325,31.965 20.354,31.985C20.376,32.002 20.398,32.016 20.422,32.028C20.428,32.031 20.433,32.036 20.439,32.038C19.698,32.278 18.97,32.532 18.256,32.784C17.131,33.182 15.967,33.592 14.777,33.929C14.758,33.926 14.741,33.917 14.722,33.917C14.446,33.917 14.222,34.142 14.222,34.417C14.222,35.47 14.15,36.597 14.08,37.687C13.978,39.269 13.873,40.905 13.973,42.451C13.974,42.472 13.985,42.493 13.99,42.514C13.996,42.544 14.002,42.575 14.013,42.602C14.026,42.634 14.043,42.662 14.061,42.69C14.077,42.713 14.092,42.737 14.112,42.758C14.135,42.782 14.162,42.801 14.19,42.821C14.214,42.839 14.236,42.856 14.263,42.868C14.295,42.883 14.33,42.889 14.365,42.897C14.387,42.903 14.406,42.915 14.428,42.917C16.147,43.069 17.916,43.181 19.628,43.288C22.58,43.472 25.633,43.662 28.58,44.083C30.464,44.308 32.367,44.687 34.205,45.053C35.764,45.365 37.375,45.685 38.994,45.916C40.318,46.082 41.686,46.253 42.973,46.253C43.08,46.253 43.174,46.212 43.255,46.155C44.644,45.903 45.886,44.949 47.086,44.024C47.66,43.583 48.201,43.166 48.722,42.854C49.487,42.416 50.3,42.086 51.16,41.737C51.572,41.571 51.994,41.399 52.424,41.211C52.498,41.178 52.557,41.127 52.605,41.067C52.698,40.999 52.769,40.899 52.795,40.776C53.147,39.181 53.027,37.265 52.91,35.412ZM18.555,8.832L42.058,8.832C42.033,11.921 42.121,15.025 42.216,18.033C42.3,20.694 42.388,23.446 42.388,26.166C42.388,26.494 42.383,26.827 42.378,27.162C42.364,28.071 42.366,29.003 42.45,29.919C41.983,29.921 41.514,29.927 41.047,29.935C40.718,29.941 40.382,29.943 40.047,29.947C39.978,29.924 39.903,29.911 39.825,29.921C39.794,29.925 39.766,29.942 39.737,29.951C39.073,29.955 38.407,29.951 37.749,29.919C36.542,29.852 35.323,29.813 34.1,29.772C32.313,29.713 30.466,29.653 28.686,29.504C28.01,29.44 27.331,29.369 26.65,29.298C23.99,29.022 21.249,28.751 18.555,28.829L18.555,8.832ZM42.467,32.968L42.224,33.004C41.959,33.048 41.7,33.099 41.442,33.148C41.151,33.205 40.868,33.254 40.581,33.299C40.587,33.261 40.585,33.218 40.59,33.179C41.37,32.898 42.344,32.568 43.226,32.408C43.253,32.413 43.281,32.415 43.309,32.415C43.549,32.415 43.761,32.242 43.802,31.997C43.811,31.943 43.81,31.893 43.815,31.84C43.877,31.82 43.941,31.807 44.003,31.789C44.003,31.812 44.003,31.836 44.005,31.859C43.938,31.943 43.891,32.047 43.891,32.165C43.891,32.245 43.913,32.316 43.947,32.384C43.81,32.767 43.41,32.83 42.467,32.968ZM42.723,30.915C42.724,30.915 42.726,30.914 42.727,30.914C42.768,31.11 42.797,31.296 42.812,31.476C42.063,31.631 41.291,31.872 40.614,32.109C40.589,31.711 40.538,31.331 40.478,30.967C40.477,30.958 40.476,30.949 40.474,30.941C40.67,30.939 40.87,30.939 41.064,30.935C41.617,30.924 42.17,30.915 42.723,30.915ZM21.07,31.122C21.036,30.955 20.998,30.79 20.957,30.627C20.889,30.355 20.84,30.092 20.818,29.834C22.731,29.903 24.66,30.095 26.547,30.29C27.231,30.36 27.913,30.433 28.597,30.497C30.407,30.647 32.266,30.709 34.065,30.768C35.281,30.807 36.494,30.848 37.697,30.914C38.26,30.942 38.828,30.952 39.39,30.952C39.413,30.952 39.438,30.951 39.463,30.951C39.473,31.011 39.48,31.069 39.489,31.129C39.534,31.407 39.575,31.694 39.602,31.985C39.142,31.971 38.681,31.958 38.225,31.946C36.334,31.897 34.55,31.852 32.688,31.667C30.771,31.467 28.834,31.438 26.96,31.409C25.028,31.379 23.031,31.342 21.07,31.122ZM26.949,32.409C28.801,32.436 30.716,32.467 32.59,32.662C34.49,32.852 36.377,32.899 38.203,32.946C38.666,32.958 39.133,32.971 39.599,32.985C39.601,33.11 39.586,33.213 39.543,33.264C39.389,33.45 38.793,33.432 38.355,33.42C38.224,33.416 38.096,33.413 37.974,33.413C35.894,33.413 33.93,33.413 31.877,33.085C31.58,33.043 31.068,33.025 30.423,33.005C27.693,32.918 26.128,32.708 25.736,32.387C26.141,32.396 26.547,32.403 26.949,32.409ZM25.987,33.546C27.042,33.86 28.618,33.949 30.39,34.006C30.98,34.025 31.492,34.041 31.726,34.075C33.849,34.414 35.851,34.414 37.972,34.414L38.326,34.421C38.461,34.425 38.599,34.429 38.74,34.429C38.908,34.429 39.076,34.419 39.24,34.402C39.261,34.405 39.283,34.416 39.306,34.416C40.154,34.416 40.906,34.271 41.631,34.132C41.648,34.129 41.665,34.126 41.682,34.123C41.477,35.33 41.083,35.328 39.585,35.251C36.819,35.084 33.993,35.251 31.245,35.084C31.015,35.073 30.73,35.068 30.415,35.064C29.115,35.045 26.693,35.013 26.093,34.185C26.046,34.117 25.928,33.925 25.987,33.546ZM42.574,35.976C42.484,35.888 42.359,35.831 42.222,35.831C42.124,35.831 42.027,35.828 41.929,35.827C42.315,35.496 42.593,34.934 42.718,33.977C42.719,33.964 42.715,33.954 42.716,33.94C43.769,33.785 44.599,33.629 44.884,32.666C46.976,32.667 48.991,32.712 51.034,33.038C50.678,33.179 50.327,33.311 49.965,33.454C47.525,34.413 45.006,35.399 42.574,35.976ZM47.313,29.901C46.676,30.279 45.926,30.41 45.129,30.536C45.084,30.543 45.039,30.554 44.994,30.559C45.029,30.49 45.056,30.413 45.056,30.33L45.056,29.026C45.494,28.911 45.918,28.776 46.334,28.639C46.691,28.52 47.041,28.408 47.389,28.311C47.389,28.86 47.385,29.383 47.313,29.901ZM46.676,14.144C47.207,14.438 47.754,14.733 48.287,14.925C48.113,18.201 48.121,21.529 48.134,24.752L48.14,27.139C47.397,27.244 46.7,27.467 46.022,27.691C45.708,27.795 45.383,27.89 45.058,27.984L45.058,13.361C45.57,13.531 46.13,13.84 46.676,14.144ZM44.057,8.998C44.063,8.998 44.069,8.995 44.075,8.995C44.069,9.024 44.057,9.051 44.057,9.081L44.057,29.912C43.912,29.918 43.729,29.886 43.481,29.735C43.468,29.727 43.454,29.727 43.44,29.721C43.372,28.887 43.368,28.023 43.38,27.175C43.385,26.835 43.39,26.497 43.39,26.164C43.39,23.429 43.302,20.668 43.218,17.999C43.123,15.028 43.037,11.963 43.061,8.921C43.366,8.93 43.666,8.945 43.987,8.991C44.01,8.997 44.033,8.998 44.057,8.998ZM18.59,33.726C19.938,33.249 21.331,32.757 22.76,32.4C22.842,32.379 22.908,32.337 22.967,32.284C23.533,32.316 24.098,32.343 24.661,32.359C24.68,32.585 24.755,32.798 24.92,32.978C24.959,33.021 25.017,33.054 25.063,33.092C24.879,33.741 24.949,34.306 25.285,34.771C25.333,34.836 25.401,34.885 25.457,34.945C24.646,34.869 23.838,34.786 23.044,34.703C21.121,34.502 19.148,34.298 17.191,34.21C17.662,34.049 18.132,33.888 18.59,33.726ZM34.402,44.067C32.543,43.696 30.621,43.313 28.711,43.086C25.736,42.661 22.664,42.47 19.691,42.285C18.131,42.188 16.526,42.084 14.958,41.951C14.904,40.592 14.989,39.149 15.079,37.748C15.134,36.886 15.181,36.007 15.203,35.144C15.238,35.152 15.27,35.165 15.307,35.165C17.819,35.165 20.423,35.436 22.941,35.699C24.484,35.86 26.074,36.016 27.654,36.123C27.735,36.192 27.833,36.243 27.947,36.248C28.898,36.298 29.848,36.351 30.799,36.405C34.428,36.608 38.177,36.815 41.877,36.828C42.158,38.11 42.16,39.508 42.152,40.866C42.141,42.324 42.148,43.824 42.488,45.233C41.399,45.199 40.246,45.061 39.127,44.92C37.545,44.692 35.947,44.374 34.402,44.067ZM50.783,40.806C49.89,41.168 49.049,41.51 48.216,41.986C47.637,42.334 47.072,42.769 46.476,43.228C45.497,43.982 44.491,44.757 43.474,45.071C43.146,43.767 43.142,42.361 43.153,40.874C43.161,39.562 43.155,38.218 42.915,36.922C45.382,36.327 47.896,35.346 50.333,34.387C50.841,34.188 51.335,33.996 51.829,33.805C51.85,34.342 51.878,34.893 51.915,35.477C52.021,37.186 52.122,38.942 51.848,40.366C51.486,40.519 51.13,40.665 50.783,40.806ZM40.306,40.472C40.323,40.747 40.11,40.984 39.834,40.998C39.399,41.022 38.963,41.033 38.523,41.033C37.207,41.033 35.878,40.94 34.584,40.85C33.289,40.757 31.951,40.664 30.64,40.664C30.364,40.664 30.14,40.439 30.14,40.164C30.14,39.889 30.364,39.664 30.64,39.664C31.987,39.664 33.342,39.759 34.653,39.852C36.426,39.975 38.102,40.09 39.78,39.999C40.057,39.968 40.289,40.195 40.306,40.472ZM28.217,37.243C28.178,37.489 27.965,37.665 27.723,37.665C27.697,37.665 27.671,37.663 27.644,37.659C26.418,37.466 25.152,37.477 23.813,37.492C23.478,37.495 23.142,37.499 22.806,37.499C22.53,37.499 22.306,37.274 22.306,36.999C22.306,36.724 22.53,36.499 22.806,36.499C23.139,36.499 23.472,36.496 23.804,36.492C25.126,36.481 26.494,36.466 27.801,36.672C28.074,36.714 28.26,36.97 28.217,37.243ZM41.707,37.704C41.695,37.755 41.687,37.804 41.681,37.849C41.642,38.092 41.551,38.665 40.723,38.665C40.556,38.665 40.4,38.582 40.307,38.442C40.116,38.154 40.119,37.868 40.319,37.59C40.319,37.262 40.669,37.045 40.964,37.153C41.073,37.085 41.21,37.06 41.346,37.095C41.613,37.164 41.774,37.437 41.707,37.704ZM41.1,47.019C41.002,46.9 40.864,46.818 40.713,46.832C38.216,46.882 35.744,46.397 33.35,45.935C31.559,45.586 29.708,45.228 27.841,45.083C26.048,44.958 24.275,44.854 22.502,44.75C20.733,44.646 18.964,44.542 17.191,44.418C16.405,44.335 15.639,44.231 14.874,44.128C14.278,44.048 13.676,43.974 13.071,43.903C12.913,43.743 12.666,43.698 12.465,43.82C12.452,43.827 12.441,43.837 12.428,43.844C12.254,43.86 12.103,43.959 12.027,44.114C11.203,44.647 10.423,45.238 9.677,45.823C9.06,46.307 8.422,46.807 7.773,47.252C7.71,47.295 7.663,47.353 7.627,47.415C7.555,47.46 7.489,47.519 7.447,47.599C7.38,47.726 7.375,47.869 7.419,47.995L7.316,48.244C7.183,48.562 7.057,48.863 6.982,49.234C6.954,49.374 6.988,49.509 7.064,49.618C7.063,49.629 7.057,49.639 7.056,49.648C7.046,49.924 7.263,50.156 7.538,50.166C10.167,50.255 12.825,50.518 15.394,50.77C17.615,50.99 19.912,51.216 22.202,51.333C23.865,51.397 25.545,51.524 27.171,51.649C29.773,51.848 32.462,52.052 35.138,52.001C36.051,52.001 36.917,52.071 37.837,52.146C38.311,52.183 38.788,52.222 39.275,52.25C39.285,52.25 39.295,52.251 39.305,52.251C39.343,52.251 39.376,52.237 39.411,52.23C39.458,52.245 39.507,52.251 39.554,52.251C39.769,52.251 39.968,52.11 40.033,51.896C40.244,51.195 40.664,50.437 41.283,49.642C41.394,49.497 41.408,49.314 41.346,49.156C41.4,49.093 41.444,49.021 41.461,48.933C41.558,48.454 41.558,47.882 41.461,47.404C41.424,47.208 41.277,47.065 41.1,47.019ZM10.295,46.61C11.066,46.006 11.865,45.395 12.702,44.864C13.39,44.94 14.067,45.028 14.74,45.119C15.515,45.223 16.291,45.328 17.105,45.414C18.898,45.539 20.671,45.643 22.444,45.747C24.213,45.851 25.982,45.955 27.769,46.08C29.576,46.22 31.397,46.573 33.16,46.915C35.314,47.333 37.535,47.747 39.809,47.811C39.205,48.544 38.527,49.464 38.195,50.233C37.043,50.197 35.853,50.002 34.697,49.803C34.25,49.727 33.809,49.651 33.385,49.588C29.447,48.958 25.234,48.335 20.822,48.248L12.833,47.998C12.484,47.98 12.119,47.973 11.747,47.967C10.762,47.949 9.754,47.928 8.884,47.682C9.365,47.331 9.838,46.97 10.295,46.61ZM35.132,50.998L35.13,50.998C32.496,51.05 29.827,50.847 27.249,50.649C25.614,50.524 23.924,50.395 22.249,50.331C19.989,50.216 17.704,49.991 15.495,49.772C13.058,49.533 10.542,49.29 8.034,49.186C8.091,49.004 8.158,48.825 8.241,48.628L8.279,48.536C9.367,48.919 10.611,48.946 11.731,48.966C12.091,48.973 12.444,48.979 12.793,48.996L20.799,49.246C25.152,49.331 29.327,49.949 33.234,50.574C33.656,50.637 34.089,50.711 34.529,50.786C35.018,50.87 35.514,50.951 36.012,51.023C35.719,51.015 35.43,50.998 35.132,50.998ZM39.408,50.771L39.138,50.591C39.365,50.077 39.835,49.368 40.497,48.551C40.491,48.611 40.493,48.676 40.48,48.734C40.459,48.831 40.479,48.922 40.512,49.007C40.506,49.015 40.498,49.017 40.492,49.025C40.031,49.621 39.674,50.204 39.408,50.771Z" fill="#1a1a1a" fill-rule="nonzero"/>
      </g>
    </g>
  </svg>